<?xml version="1.0" encoding="UTF-8" standalone="no"?>
<svg
   xmlns:dc="http://purl.org/dc/elements/1.1/"
   xmlns:cc="http://creativecommons.org/ns#"
   xmlns:rdf="http://www.w3.org/1999/02/22-rdf-syntax-ns#"
   xmlns:svg="http://www.w3.org/2000/svg"
   xmlns="http://www.w3.org/2000/svg"
   xmlns:sodipodi="http://sodipodi.sourceforge.net/DTD/sodipodi-0.dtd"
   xmlns:inkscape="http://www.inkscape.org/namespaces/inkscape"
   sodipodi:docname="telerik.svg"
   inkscape:version="1.0 (4035a4fb49, 2020-05-01)"
   id="svg866"
   version="1.1"
   viewBox="0 0 4.6847448 5.0079145"
   height="5.0079145mm"
   width="5.0079145mm">
  <defs
     id="defs860" />
  <sodipodi:namedview
     fit-margin-bottom="0"
     fit-margin-right="0"
     fit-margin-left="0"
     fit-margin-top="0"
     inkscape:window-maximized="1"
     inkscape:window-y="-8"
     inkscape:window-x="-8"
     inkscape:window-height="1017"
     inkscape:window-width="1920"
     showgrid="false"
     inkscape:document-rotation="0"
     inkscape:current-layer="layer1"
     inkscape:document-units="mm"
     inkscape:cy="1.5977624"
     inkscape:cx="8.6192542"
     inkscape:zoom="15.839192"
     inkscape:pageshadow="2"
     inkscape:pageopacity="0.0"
     borderopacity="1.0"
     bordercolor="#666666"
     pagecolor="#ffffff"
     id="base" />
  <metadata
     id="metadata863">
    <rdf:RDF>
      <cc:Work
         rdf:about="">
        <dc:format>image/svg+xml</dc:format>
        <dc:type
           rdf:resource="http://purl.org/dc/dcmitype/StillImage" />
        <dc:title></dc:title>
      </cc:Work>
    </rdf:RDF>
  </metadata>
  <g
     transform="translate(-86.860008,-150.95438)"
     id="layer1"
     inkscape:groupmode="layer"
     inkscape:label="Layer 1">
    <g
       id="g847"
       transform="matrix(0.09719388,0,0,0.09719388,86.860008,150.95681)">
      <path
         id="path833"
         d="M 11.2,14.9 0,21.3 17.4,31.4 v 20.1 l 11.2,-6.4 c 0.5,-0.3 0.9,-1 0.9,-1.6 V 24.4 L 13,14.9 c -0.5,-0.3 -1.3,-0.3 -1.8,0 z"
         fill="#5ce500" />
      <path
         id="path835"
         d="M 12.1,48.4 V 34.5 L 0,41.5 Z M 25,0.2 c -0.5,-0.3 -1.3,-0.3 -1.8,0 L 10.7,7.4 34.8,21.3 V 49.2 L 47.3,42 c 0.5,-0.3 0.9,-1 0.9,-1.6 V 13.6 Z"
         fill="#5ce500" />
    </g>
  </g>
</svg>
